 <svg
    class="animated"
    id="freepik_stories-earth-and-moon"
    xmlns="http://www.w3.org/2000/svg"
    viewBox="0 0 500 500"
    version="1.1"
    xmlns:xlink="http://www.w3.org/1999/xlink"
    xmlns:svgjs="http://svgjs.com/svgjs"
  >
    <style>
      svg#freepik_stories-earth-and-moon:not(.animated)
        .animable {
        opacity: 0;
      }
      svg#freepik_stories-earth-and-moon.animated
        #freepik--background-complete--inject-248 {
        animation: 1.5s Infinite linear wind;
        animation-delay: 0s;
      }
      svg#freepik_stories-earth-and-moon.animated
        #freepik--Earth--inject-248 {
        animation: 3s Infinite linear floating;
        animation-delay: 0s;
      }
      svg#freepik_stories-earth-and-moon.animated
        #freepik--Circle--inject-248 {
        animation: 6s Infinite linear spin;
        animation-delay: 0s;
      }
      svg#freepik_stories-earth-and-moon.animated
        #freepik--Moon--inject-248 {
        animation: 1.5s Infinite linear wind;
        animation-delay: 0s;
      }
      @keyframes wind {
        0% {
          transform: rotate(0deg);
        }
        25% {
          transform: rotate(1deg);
        }
        75% {
          transform: rotate(-1deg);
        }
      }
      @keyframes floating {
        0% {
          opacity: 1;
          transform: translateY(0px);
        }
        50% {
          transform: translateY(-10px);
        }
        100% {
          opacity: 1;
          transform: translateY(0px);
        }
      }
      @keyframes spin {
        from {
          transform: rotate(0);
        }
        to {
          transform: rotate(360deg);
        }
      }
    </style>
    <g
      id="freepik--background-complete--inject-248"
      class="animable"
      style="transform-origin: 250.031px 250.016px"
    >
      <g id="eltjkzhyp31bi">
        <g
          style="
            opacity: 0.4;
            transform-origin: 250.031px 250.016px;
          "
          class="animable"
          id="elrh0nbbch1wf"
        >
          <path
            d="M453,218.5c-1.47-3.34-3.08-6.66-4.69-10-3.21-6.7-6.41-13.52-9.16-20.63a165.72,165.72,0,0,1-7-22.07c-.46-1.9-.86-3.82-1.25-5.74s-.71-4-1.05-5.58c-.68-3.41-1.52-6.74-2.48-10a93,93,0,0,0-3.35-9.35,73.54,73.54,0,0,0-4.17-8.6,72.3,72.3,0,0,0-10.71-14.65c-8.08-8.68-18.7-14.83-30.5-18.72-2.94-1-6-1.78-9-2.45-1.52-.33-3-.62-4.52-.88l-2.71-.43c-1-.17-2-.31-3-.52a129.11,129.11,0,0,1-23.86-6.85,164.55,164.55,0,0,1-21.5-10.77c-6.56-3.81-12.47-7.39-18.39-10.22a97.41,97.41,0,0,0-9-3.81c-1.52-.57-3.06-1.08-4.61-1.57L279.82,55c-.66-.19-1.31-.38-2-.54a32.74,32.74,0,0,0-7.75-1,24,24,0,0,0-7.2,1.14,17.36,17.36,0,0,0-10.48,9.09,20.83,20.83,0,0,0-2,7.76,30.43,30.43,0,0,0,.89,8.92A48.52,48.52,0,0,0,260.25,98a62.15,62.15,0,0,0,15.2,14,94,94,0,0,0,19.06,9.43c6.75,2.53,13.79,4.51,21,6.56s14.65,4.19,22.13,8a47.36,47.36,0,0,1,10.86,7.45c.84.79,1.66,1.62,2.45,2.48s1.52,1.8,2.2,2.7c1.36,1.8,2.54,3.59,3.64,5.38a154.24,154.24,0,0,1,10.44,21.19c1.45,3.51,2.85,7,4.14,10.5s2.6,7,3.81,10.42c4.88,13.84,9.23,27.52,14.16,40.34a138.39,138.39,0,0,0,8.24,18,49,49,0,0,0,5,7.43,26.43,26.43,0,0,0,2.86,3c.49.47,1,.87,1.51,1.29l.78.58c.29.21.67.43,1,.64a37.61,37.61,0,0,0,17.61,6.06A25.18,25.18,0,0,0,440,270.3a27.55,27.55,0,0,0,4-2.84c5.15-4.28,8.78-10.64,10.74-17.46a55.6,55.6,0,0,0,1.54-21.4A39.46,39.46,0,0,0,453,218.5Zm5.33,32.36a47.73,47.73,0,0,1-9.56,21.24,35.08,35.08,0,0,1-4.31,4.4,34.14,34.14,0,0,1-5.09,3.7,37.19,37.19,0,0,1-12,4.54,44.71,44.71,0,0,1-12.9.58A59.39,59.39,0,0,1,402,282.7c-.51-.17-1-.31-1.53-.51l-1.69-.66a35.36,35.36,0,0,1-3.22-1.55,43.32,43.32,0,0,1-5.87-3.78,48.35,48.35,0,0,1-5.1-4.39c-1.59-1.53-3.05-3.12-4.45-4.73a104,104,0,0,1-13.26-20.57c-7.05-14.14-11.64-28.64-15.59-42.92-1-3.57-1.9-7.14-2.8-10.69l-2.66-10.54c-.91-3.47-1.76-6.93-2.73-10.27s-1.91-6.64-3.05-9.65c-.57-1.51-1.17-2.95-1.8-4.25-.31-.65-.63-1.25-.95-1.84s-.71-1.18-1.1-1.76a31,31,0,0,0-6.18-6.54c-5-4-11.45-7.27-18.1-10.13-13.36-5.82-27.93-10.41-41.22-18.44a101.69,101.69,0,0,1-9.64-6.62,86.35,86.35,0,0,1-8.78-7.92A70.45,70.45,0,0,1,238.4,85a45.8,45.8,0,0,1-3.57-12.66,37.82,37.82,0,0,1,.76-14.07,35.2,35.2,0,0,1,6.53-13.34,37.72,37.72,0,0,1,11.52-9.74,43,43,0,0,1,14-4.7,50.31,50.31,0,0,1,14.28-.15c1.17.14,2.31.33,3.46.53l3,.62c2,.45,4,.93,6,1.49a118.81,118.81,0,0,1,11.74,3.92c7.64,3,14.64,6.57,21.1,9.68a146,146,0,0,0,18.6,7.8,114.55,114.55,0,0,0,18.83,4.49l5.2.76c2.15.32,4.26.69,6.35,1.16a99.2,99.2,0,0,1,12.32,3.46,96.26,96.26,0,0,1,23.09,11.63,85,85,0,0,1,19.14,18.06A76.41,76.41,0,0,1,442.86,117a87.61,87.61,0,0,1,4.07,24.62,107,107,0,0,1-.36,12c-.16,2.08-.35,3.67-.51,5.46s-.27,3.52-.33,5.28a107.32,107.32,0,0,0,1.15,21.36c.59,3.56,1.28,7.12,2.2,10.64s2,7,3.19,10.48,2.52,6.91,3.8,10.41c.63,1.75,1.28,3.5,1.83,5.32a30.6,30.6,0,0,1,1.27,5.69A77,77,0,0,1,458.37,250.86Z"
            style="
              fill: rgb(235, 235, 235);
              transform-origin: 347.073px 157.723px;
            "
            id="elh862n5oi999"
            class="animable"
          ></path>
          <path
            d="M142.45,432.84l-6.41-.93c-2.14-.32-4.28-.62-6.42-1s-4.28-.72-6.43-1.07-4.28-.76-6.43-1.14A212.62,212.62,0,0,1,91,422.48a120.45,120.45,0,0,1-12.77-4.85,84.31,84.31,0,0,1-12.38-6.91A73.67,73.67,0,0,1,60,406.28c-.95-.82-1.85-1.71-2.77-2.57-.46-.44-.93-.87-1.38-1.33l-1.28-1.44a52.39,52.39,0,0,1-8.84-13.23c-.57-1.25-1.13-2.5-1.65-3.77s-.85-2.62-1.27-3.94c-.2-.66-.42-1.32-.59-2l-.43-2c-.28-1.36-.59-2.72-.8-4.08l-.41-4.1c-.06-.69-.15-1.38-.17-2.06v-6.13c.09-1.33.22-2.66.34-4a67.15,67.15,0,0,1,1.17-7.85l.36-1.94.48-1.88,1-3.75c.32-1.27.71-2.44,1.09-3.62s.74-2.36,1.16-3.56c.88-2.39,1.71-4.77,2.81-7.18a76.74,76.74,0,0,1,7.89-14.35A67.17,67.17,0,0,1,68.24,298.8a85.84,85.84,0,0,1,13.23-9.11c4.41-2.47,8.68-4.57,12.84-6.43,8.33-3.76,16.2-7.08,24-10.54a416.17,416.17,0,0,0,45.19-23.34l2.75-1.64,2.73-1.69c1.81-1.14,3.64-2.24,5.44-3.41l11.11-7.18c1.92-1.26,3.91-2.43,5.87-3.65s4-2.3,6-3.45,4.05-2.21,6.09-3.29,4.13-2.07,6.21-3.08q6.27-3,12.74-5.5l3.24-1.23,3.29-1.14c2.17-.79,4.41-1.43,6.61-2.13,4.46-1.29,8.94-2.48,13.51-3.33a118.5,118.5,0,0,1,13.79-1.93,93.55,93.55,0,0,1,27.69,1.54c2.27.45,4.5,1.09,6.73,1.72l3.28,1.11c1.09.37,2.14.86,3.22,1.28a70.86,70.86,0,0,1,12.14,6.52,75,75,0,0,1,10.51,8.77c.78.83,1.58,1.62,2.36,2.49l2.26,2.74a38.67,38.67,0,0,1,3.85,6.16,33.22,33.22,0,0,1,3.41,14.53,46.75,46.75,0,0,1-2.45,14.52,91.67,91.67,0,0,1-5.49,13.08c-1,2.1-2.11,4.13-3.21,6.16l-3.38,6c-4.55,7.88-9.22,15.5-13.34,23.15-2.05,3.81-4,7.61-5.62,11.38a67.12,67.12,0,0,0-3.91,11.1A65.56,65.56,0,0,0,299.3,350a115.73,115.73,0,0,0-.17,11.82l.12,3,.18,3.08c.14,2.07.25,4.14.43,6.25l1,12.91a192.7,192.7,0,0,1,.51,27.8,91.48,91.48,0,0,1-2.25,15,65.29,65.29,0,0,1-5.61,15.12,56.54,56.54,0,0,1-9.63,13.32q-1.56,1.51-3.15,3c-1.15.92-2.33,1.82-3.5,2.68s-2.55,1.56-3.84,2.27-2.69,1.27-4.07,1.77A36.56,36.56,0,0,1,253,469.9a58,58,0,0,1-14-3.44A116.32,116.32,0,0,1,226.7,461c-3.93-1.95-7.73-4-11.54-6.05-7.57-4.09-15.07-8.09-22.87-11.42a96.12,96.12,0,0,0-24.24-7.18ZM193.68,440c8.2,2.7,16.26,5.72,24.39,8.37,4,1.36,8.12,2.58,12.17,3.68a107.43,107.43,0,0,0,12.09,2.44,44.13,44.13,0,0,0,11.37.25,21.33,21.33,0,0,0,9-3.08,21.79,21.79,0,0,0,6.26-6.38,40.75,40.75,0,0,0,4.62-9.15c2.29-6.42,3.15-13.67,3.31-21.53.36-15.75-2.08-33.33-.84-52.43.7-9.57,2.3-19.51,6.45-29.35a87.1,87.1,0,0,1,7.15-13.16c2.61-4,5.37-7.83,8.18-11.47,5.62-7.26,11.37-14.07,16.61-21,2.64-3.48,5.12-7,7.36-10.64a70.31,70.31,0,0,0,5.67-11.13,33.24,33.24,0,0,0,2.44-11.45,22.38,22.38,0,0,0-2.5-10.72,30.15,30.15,0,0,0-3-4.73l-1.91-2.16c-.67-.71-1.43-1.39-2.14-2.09a54.35,54.35,0,0,0-9.52-7.15,53.67,53.67,0,0,0-22.43-7,63.3,63.3,0,0,0-11.92,0A85.14,85.14,0,0,0,264.57,222a127.06,127.06,0,0,0-23.12,8.12c-1.87.91-3.75,1.73-5.59,2.7l-2.77,1.42-2.74,1.49c-3.67,1.94-7.25,4.12-10.83,6.26-1.78,1.1-3.54,2.24-5.31,3.36L209,248.85c-3.47,2.38-6.92,4.8-10.33,7.3L188,264c-1.83,1.35-3.7,2.63-5.55,4l-2.79,2-2.83,1.92a385.9,385.9,0,0,1-47.13,27.64c-4.05,2-8.09,4-12.11,5.81s-8,3.66-11.76,5.47c-7.64,3.6-14.42,7.11-19.35,11.11a39.31,39.31,0,0,0-6.55,6.72,52.13,52.13,0,0,0-5.32,8.79c-.84,1.61-1.56,3.4-2.34,5.13-.37.89-.71,1.82-1.07,2.73s-.73,1.84-1,2.71a75.55,75.55,0,0,0-2.91,10.48l-.5,2.58-.27,2.52-.16,1.27c0,.43,0,.83,0,1.24l-.08,2.48c0,.82.08,1.62.11,2.43l0,1.23c0,.4.12.79.17,1.19l.36,2.4c.22.77.4,1.55.58,2.35a36.81,36.81,0,0,0,3.87,9.21L72,388.5c.23.37.5.73.75,1.09l1.52,2.21c1.17,1.39,2.22,2.9,3.57,4.22a71.38,71.38,0,0,0,8.54,7.83,101.82,101.82,0,0,0,10,6.79A138.48,138.48,0,0,0,119,421.39c4,1.48,8,2.87,12,4.07,2,.61,4.07,1.24,6.14,1.76l3.08.82,3.11.75c8.3,2,16.72,3.52,25.2,4.75A152.39,152.39,0,0,1,193.68,440Z"
            style="
              fill: rgb(235, 235, 235);
              transform-origin: 189.37px 338.226px;
            "
            id="elffmabgkwfz"
            class="animable"
          ></path>
          <path
            d="M207.27,96.26a62.62,62.62,0,0,0-8.32-1.5c-1.34-.18-2.63-.28-3.94-.39s-2.59-.15-3.86-.17c-2.54-.1-5,0-7.5,0-9.83.39-19.22,1.89-28.49,3.32l-3.28.5-1.46.21-1.48.12c-1,.09-2,.06-3.06.09s-2.09-.09-3.16-.17-2.12-.19-3.21-.37-2.15-.32-3.24-.53c-2.16-.45-4.38-.92-6.56-1.53-8.82-2.32-17.53-5.77-27.26-8A49.92,49.92,0,0,0,86.74,86.7a36.58,36.58,0,0,0-8.33,1.83,39.9,39.9,0,0,0-4,1.66c-.66.32-1.32.63-2,1l-1.85,1.1a48.6,48.6,0,0,0-6.82,5.06c-1.08.94-2.1,2.07-3.15,3.13s-1.87,2.28-2.81,3.45-1.63,2.4-2.43,3.64c-.41.62-.73,1.25-1.06,1.87l-1,1.91-.49,1-.41,1-.81,2a36.41,36.41,0,0,0-1.42,3.94,64.3,64.3,0,0,0-2.87,16,76.67,76.67,0,0,0,.86,15.7,75.25,75.25,0,0,0,4,14.92c.46,1.2,1,2.39,1.45,3.56s1.11,2.33,1.67,3.48,1.16,2.29,1.79,3.4,1.25,2.22,2,3.31a94.41,94.41,0,0,0,9.1,12.23,92.25,92.25,0,0,0,10.71,10.5,78.06,78.06,0,0,0,12,8.37,49.55,49.55,0,0,0,13.45,5.17,32.23,32.23,0,0,0,14.61-.34,54.68,54.68,0,0,0,13.69-5.82,144.65,144.65,0,0,0,23.82-17.81c3.66-3.29,7.09-6.72,10.35-10.24a7,7,0,0,1,1-.94l.86-.75c.65-.44,1.16-1,1.84-1.37l.94-.66c.34-.2.69-.39,1-.62.63-.44,1.42-.8,2.08-1.23a88.7,88.7,0,0,1,10.06-4.7l6-2.37,3.23-1.26,3.36-1.39c2.27-.92,4.67-2.07,7.11-3.28a71,71,0,0,0,7.53-4.49,48.16,48.16,0,0,0,7.54-6.44,39.7,39.7,0,0,0,6.28-8.74l.66-1.21.56-1.24c.36-.83.73-1.66,1.06-2.51a42,42,0,0,0,1.48-5.06l.53-2.53.32-2.45a44.41,44.41,0,0,0,.31-4.81c0-.42,0-.74,0-1.23,0-.64,0-1.28-.08-1.91a21.67,21.67,0,0,0-.58-3.95c-.07-.32-.14-.66-.23-1l-.32-1c-.22-.67-.46-1.32-.71-2a26.6,26.6,0,0,0-1.95-3.66c-.38-.55-.76-1.1-1.16-1.63-.2-.27-.4-.54-.6-.78l-.63-.7c-.42-.45-.85-.89-1.29-1.34s-.86-.76-1.3-1.15-.89-.72-1.33-1l-1.29-.88c-.43-.28-.88-.6-1.3-.83l-1.25-.69A42.67,42.67,0,0,0,207.27,96.26Z"
            style="
              fill: rgb(235, 235, 235);
              transform-origin: 138.871px 151.562px;
            "
            id="el6qt9rrcjhn8"
            class="animable"
          ></path>
          <path
            d="M341.24,338.68a45.43,45.43,0,0,0-.65,9.23,64.58,64.58,0,0,0,2.87,16.59A106.08,106.08,0,0,0,349,379.87a68.48,68.48,0,0,0,8.55,14,64.61,64.61,0,0,0,12.27,11.85,40.44,40.44,0,0,0,17.31,6.89,39.12,39.12,0,0,0,10,.21,31.39,31.39,0,0,0,16.57-7,63.75,63.75,0,0,0,5.64-5.29,22.93,22.93,0,0,0,2.46-3.23,25.81,25.81,0,0,0,1.73-3.73,41,41,0,0,0,1.86-8.19,70.38,70.38,0,0,0,.19-17.47,39.28,39.28,0,0,0-5.32-15.77,39.73,39.73,0,0,0-10.84-11.63c-4.32-3.16-9.4-5.42-14.38-7.47s-9.93-3.89-14.58-6.08-9.14-4.64-14.79-6.39a25.77,25.77,0,0,0-4.64-1,18.65,18.65,0,0,0-5.51.09,14.41,14.41,0,0,0-6.63,3.23,15.11,15.11,0,0,0-1.34,1.31c-.39.44-.79.9-1.16,1.38a23.36,23.36,0,0,0-1.76,2.79,28,28,0,0,0-1.28,2.75c-.32.85-.68,1.79-.9,2.61L342,335l-.3,1.25C341.52,337.08,341.39,337.86,341.24,338.68Z"
            style="
              fill: rgb(235, 235, 235);
              transform-origin: 383.3px 366.226px;
            "
            id="elfrycmth20q"
            class="animable"
          ></path>
        </g>
      </g>
      <polygon
        points="103.53 357.3 107.4 358.02 108.27 362.1 109.13 358.02 113 357.3 109.15 356.36 108.27 352.51 107.38 356.36 103.53 357.3"
        style="
          fill: rgb(219, 219, 219);
          transform-origin: 108.265px 357.305px;
        "
        id="el5qo3zkj38sq"
        class="animable"
      ></polygon>
      <polygon
        points="284.43 50.61 288.3 51.33 289.17 55.41 290.03 51.33 293.9 50.61 290.05 49.67 289.17 45.82 288.28 49.67 284.43 50.61"
        style="
          fill: rgb(219, 219, 219);
          transform-origin: 289.165px 50.615px;
        "
        id="eldtf3xs29l9m"
        class="animable"
      ></polygon>
      <polygon
        points="300.18 449.39 304.05 450.1 304.92 454.18 305.78 450.1 309.65 449.39 305.8 448.44 304.92 444.59 304.04 448.44 300.18 449.39"
        style="
          fill: rgb(219, 219, 219);
          transform-origin: 304.915px 449.385px;
        "
        id="eloninhn2j3ej"
        class="animable"
      ></polygon>
      <polygon
        points="431.29 364.78 433.45 365.18 433.94 367.46 434.42 365.18 436.58 364.78 434.43 364.25 433.94 362.1 433.45 364.25 431.29 364.78"
        style="
          fill: rgb(219, 219, 219);
          transform-origin: 433.935px 364.78px;
        "
        id="elkdzpkj2rbp"
        class="animable"
      ></polygon>
      <polygon
        points="401.69 100.11 403.85 100.52 404.33 102.79 404.81 100.52 406.98 100.11 404.82 99.59 404.33 97.44 403.84 99.59 401.69 100.11"
        style="
          fill: rgb(219, 219, 219);
          transform-origin: 404.335px 100.115px;
        "
        id="ely7x238n22r"
        class="animable"
      ></polygon>
      <polygon
        points="442.68 174.9 444.84 175.3 445.32 177.58 445.81 175.3 447.97 174.9 445.81 174.37 445.32 172.22 444.83 174.37 442.68 174.9"
        style="
          fill: rgb(219, 219, 219);
          transform-origin: 445.325px 174.9px;
        "
        id="ele1qquxcf6wm"
        class="animable"
      ></polygon>
      <polygon
        points="58.95 376.06 61.11 376.46 61.59 378.74 62.08 376.46 64.24 376.06 62.09 375.53 61.59 373.38 61.1 375.53 58.95 376.06"
        style="
          fill: rgb(219, 219, 219);
          transform-origin: 61.595px 376.06px;
        "
        id="elhyie7kdngci"
        class="animable"
      ></polygon>
      <polygon
        points="417.66 319.91 419.82 320.31 420.31 322.59 420.79 320.31 422.95 319.91 420.8 319.38 420.31 317.23 419.81 319.38 417.66 319.91"
        style="
          fill: rgb(219, 219, 219);
          transform-origin: 420.305px 319.91px;
        "
        id="elp2tb06c2oes"
        class="animable"
      ></polygon>
      <polygon
        points="122.78 389.21 124.95 389.62 125.43 391.89 125.91 389.62 128.08 389.21 125.92 388.69 125.43 386.54 124.94 388.69 122.78 389.21"
        style="
          fill: rgb(219, 219, 219);
          transform-origin: 125.43px 389.215px;
        "
        id="elwjsy3bz3cx"
        class="animable"
      ></polygon>
      <path
        d="M80.28,424.29a.63.63,0,0,1,0,1.26A.63.63,0,0,1,80.28,424.29Z"
        style="
          fill: rgb(219, 219, 219);
          transform-origin: 80.28px 424.92px;
        "
        id="el6hlykjd8dvy"
        class="animable"
      ></path>
      <path
        d="M373.9,338.88a.63.63,0,0,1,0,1.26A.63.63,0,0,1,373.9,338.88Z"
        style="
          fill: rgb(219, 219, 219);
          transform-origin: 373.9px 339.51px;
        "
        id="elyaby3qc83he"
        class="animable"
      ></path>
      <path
        d="M379.82,249.26a.63.63,0,0,1,0,1.25A.63.63,0,0,1,379.82,249.26Z"
        style="
          fill: rgb(219, 219, 219);
          transform-origin: 379.82px 249.885px;
        "
        id="elzau9nk7r2e"
        class="animable"
      ></path>
      <path
        d="M142.46,423.67a.63.63,0,0,1,0,1.25A.63.63,0,0,1,142.46,423.67Z"
        style="
          fill: rgb(219, 219, 219);
          transform-origin: 142.46px 424.295px;
        "
        id="elnadh0e0ox2h"
        class="animable"
      ></path>
      <path
        d="M116.75,387.34a.63.63,0,0,1,0,1.25A.63.63,0,0,1,116.75,387.34Z"
        style="
          fill: rgb(219, 219, 219);
          transform-origin: 116.75px 387.965px;
        "
        id="elv01c8uagkz"
        class="animable"
      ></path>
      <path
        d="M403.73,347.1a.63.63,0,0,1,0,1.25A.63.63,0,0,1,403.73,347.1Z"
        style="
          fill: rgb(219, 219, 219);
          transform-origin: 403.73px 347.725px;
        "
        id="elj5t3lpb1zo"
        class="animable"
      ></path>
      <path
        d="M377.5,277.76a.63.63,0,0,1,0,1.26A.63.63,0,0,1,377.5,277.76Z"
        style="
          fill: rgb(219, 219, 219);
          transform-origin: 377.5px 278.39px;
        "
        id="elvhbtrapmw9"
        class="animable"
      ></path>
      <path
        d="M368,385.65a.44.44,0,0,1,0,.88A.44.44,0,0,1,368,385.65Z"
        style="
          fill: rgb(219, 219, 219);
          transform-origin: 368px 386.09px;
        "
        id="elbqqdx9hsnz9"
        class="animable"
      ></path>
      <path
        d="M134.05,111.07a.45.45,0,0,1,0,.89A.45.45,0,0,1,134.05,111.07Z"
        style="
          fill: rgb(219, 219, 219);
          transform-origin: 134.05px 111.515px;
        "
        id="el4y2s8k5pzg"
        class="animable"
      ></path>
      <path
        d="M135.17,391.45a.45.45,0,0,1,0,.89A.45.45,0,0,1,135.17,391.45Z"
        style="
          fill: rgb(219, 219, 219);
          transform-origin: 135.17px 391.895px;
        "
        id="el83ja7ba1j3i"
        class="animable"
      ></path>
      <polygon
        points="56.86 254.47 60.73 255.18 61.59 259.26 62.46 255.18 66.33 254.46 62.48 253.52 61.59 249.67 60.71 253.52 56.86 254.47"
        style="
          fill: rgb(219, 219, 219);
          transform-origin: 61.595px 254.465px;
        "
        id="elvoaostxq99m"
        class="animable"
      ></polygon>
      <polygon
        points="424.86 154.8 428.73 155.51 429.59 159.59 430.45 155.51 434.32 154.8 430.47 153.85 429.59 150 428.71 153.85 424.86 154.8"
        style="
          fill: rgb(219, 219, 219);
          transform-origin: 429.59px 154.795px;
        "
        id="elq3j6tg8x3zf"
        class="animable"
      ></polygon>
      <polygon
        points="260.52 69.4 262.69 69.8 263.17 72.08 263.65 69.8 265.82 69.4 263.66 68.88 263.17 66.72 262.68 68.88 260.52 69.4"
        style="
          fill: rgb(219, 219, 219);
          transform-origin: 263.17px 69.4px;
        "
        id="el5m76gkc4qzd"
        class="animable"
      ></polygon>
      <polygon
        points="61.59 145.55 63.76 145.95 64.24 148.23 64.72 145.95 66.89 145.55 64.73 145.02 64.24 142.87 63.75 145.02 61.59 145.55"
        style="
          fill: rgb(219, 219, 219);
          transform-origin: 64.24px 145.55px;
        "
        id="el4vfjs4kakxl"
        class="animable"
      ></polygon>
      <path
        d="M101.31,141.77a.63.63,0,0,1,0,1.25A.63.63,0,0,1,101.31,141.77Z"
        style="
          fill: rgb(219, 219, 219);
          transform-origin: 101.31px 142.395px;
        "
        id="elf5hwnlhgfia"
        class="animable"
      ></path>
      <path
        d="M53.65,366.31a.63.63,0,0,1,0,1.25A.63.63,0,0,1,53.65,366.31Z"
        style="
          fill: rgb(219, 219, 219);
          transform-origin: 53.65px 366.935px;
        "
        id="el6zygdxnkl3w"
        class="animable"
      ></path>
      <path
        d="M105.07,344.68a.63.63,0,0,1,0,1.26A.63.63,0,0,1,105.07,344.68Z"
        style="
          fill: rgb(219, 219, 219);
          transform-origin: 105.07px 345.31px;
        "
        id="elidpp0jir8z"
        class="animable"
      ></path>
      <path
        d="M54.25,186a.63.63,0,0,1,0,1.25A.63.63,0,0,1,54.25,186Z"
        style="
          fill: rgb(219, 219, 219);
          transform-origin: 54.25px 186.625px;
        "
        id="elzy5skl24lzr"
        class="animable"
      ></path>
      <path
        d="M187.15,59.57a.63.63,0,0,1,0,1.26A.63.63,0,0,1,187.15,59.57Z"
        style="
          fill: rgb(219, 219, 219);
          transform-origin: 187.15px 60.2px;
        "
        id="elbkzod4gqfdl"
        class="animable"
      ></path>
      <path
        d="M161.54,397.93a.44.44,0,0,1,0,.88A.44.44,0,0,1,161.54,397.93Z"
        style="
          fill: rgb(219, 219, 219);
          transform-origin: 161.54px 398.37px;
        "
        id="el3wnujw924q3"
        class="animable"
      ></path>
      <polygon
        points="436.45 250.52 438.62 250.92 439.1 253.2 439.58 250.92 441.74 250.52 439.59 250 439.1 247.84 438.61 250 436.45 250.52"
        style="
          fill: rgb(219, 219, 219);
          transform-origin: 439.095px 250.52px;
        "
        id="el3bxjzc9uknd"
        class="animable"
      ></polygon>
      <path
        d="M318,76.84a.44.44,0,0,1,0,.88A.44.44,0,0,1,318,76.84Z"
        style="
          fill: rgb(219, 219, 219);
          transform-origin: 318px 77.28px;
        "
        id="elor45wzkuep"
        class="animable"
      ></path>
      <path
        d="M223.69,439.08a.45.45,0,0,1,0,.89A.45.45,0,0,1,223.69,439.08Z"
        style="
          fill: rgb(219, 219, 219);
          transform-origin: 223.69px 439.525px;
        "
        id="eliq0tnydu0g"
        class="animable"
      ></path>
      <path
        d="M411.62,172.26a.44.44,0,0,1,0,.88A.44.44,0,0,1,411.62,172.26Z"
        style="
          fill: rgb(219, 219, 219);
          transform-origin: 411.62px 172.7px;
        "
        id="elpe308r3ri9b"
        class="animable"
      ></path>
      <path
        d="M338.88,60.38a.45.45,0,0,1,0,.89A.45.45,0,0,1,338.88,60.38Z"
        style="
          fill: rgb(219, 219, 219);
          transform-origin: 338.88px 60.825px;
        "
        id="elmvsyajocoqc"
        class="animable"
      ></path>
      <path
        d="M304.92,84.06a1.21,1.21,0,0,1,0,2.41A1.21,1.21,0,0,1,304.92,84.06Z"
        style="
          fill: rgb(219, 219, 219);
          transform-origin: 304.92px 85.265px;
        "
        id="elo0hreh5pci"
        class="animable"
      ></path>
      <path
        d="M412.05,206.06a1.2,1.2,0,0,1,0,2.4A1.2,1.2,0,0,1,412.05,206.06Z"
        style="
          fill: rgb(219, 219, 219);
          transform-origin: 412.05px 207.26px;
        "
        id="elpojtsheh7uh"
        class="animable"
      ></path>
      <path
        d="M90.36,324.92a1.2,1.2,0,0,1,0,2.4A1.2,1.2,0,0,1,90.36,324.92Z"
        style="
          fill: rgb(219, 219, 219);
          transform-origin: 90.36px 326.12px;
        "
        id="elrmnuw8o5n6"
        class="animable"
      ></path>
      <polygon
        points="150.97 90.29 153.13 90.69 153.61 92.97 154.09 90.69 156.26 90.29 154.1 89.77 153.61 87.61 153.12 89.77 150.97 90.29"
        style="
          fill: rgb(219, 219, 219);
          transform-origin: 153.615px 90.29px;
        "
        id="elu4db6l085u"
        class="animable"
      ></polygon>
      <path
        d="M338.68,421.1a.63.63,0,0,1,0,1.25A.63.63,0,0,1,338.68,421.1Z"
        style="
          fill: rgb(219, 219, 219);
          transform-origin: 338.68px 421.725px;
        "
        id="elih9jr0m3y2"
        class="animable"
      ></path>
      <path
        d="M297.13,415.19a.63.63,0,0,1,0,1.25A.63.63,0,0,1,297.13,415.19Z"
        style="
          fill: rgb(219, 219, 219);
          transform-origin: 297.13px 415.815px;
        "
        id="elvyl6znodpjo"
        class="animable"
      ></path>
      <polygon
        points="384.61 377.63 386.77 378.03 387.25 380.31 387.74 378.03 389.9 377.63 387.75 377.1 387.25 374.95 386.76 377.1 384.61 377.63"
        style="
          fill: rgb(219, 219, 219);
          transform-origin: 387.255px 377.63px;
        "
        id="elf9i4u29oqtu"
        class="animable"
      ></polygon>
      <polygon
        points="404.33 432.26 406.49 432.66 406.98 434.94 407.46 432.66 409.62 432.25 407.47 431.73 406.98 429.58 406.48 431.73 404.33 432.26"
        style="
          fill: rgb(219, 219, 219);
          transform-origin: 406.975px 432.26px;
        "
        id="el55ynyls9ft4"
        class="animable"
      ></polygon>
      <path
        d="M389.9,406.41a.44.44,0,0,1,0,.88A.44.44,0,0,1,389.9,406.41Z"
        style="
          fill: rgb(219, 219, 219);
          transform-origin: 389.9px 406.85px;
        "
        id="elz6q4y59i3fb"
        class="animable"
      ></path>
      <polygon
        points="77.64 267.96 79.8 268.36 80.28 270.64 80.76 268.36 82.93 267.96 80.77 267.43 80.28 265.28 79.79 267.43 77.64 267.96"
        style="
          fill: rgb(219, 219, 219);
          transform-origin: 80.285px 267.96px;
        "
        id="el2lgad1fu3d3"
        class="animable"
      ></polygon>
      <path
        d="M52.64,314.36a.63.63,0,0,1,0,1.25A.63.63,0,0,1,52.64,314.36Z"
        style="
          fill: rgb(219, 219, 219);
          transform-origin: 52.64px 314.985px;
        "
        id="elw1jye49ccmd"
        class="animable"
      ></path>
      <path
        d="M90.36,197a.45.45,0,0,1,0,.89A.45.45,0,0,1,90.36,197Z"
        style="
          fill: rgb(219, 219, 219);
          transform-origin: 90.36px 197.445px;
        "
        id="el82mc5xxn0be"
        class="animable"
      ></path>
      <path
        d="M119.4,75.63a1.21,1.21,0,0,1,0,2.41A1.21,1.21,0,0,1,119.4,75.63Z"
        style="
          fill: rgb(219, 219, 219);
          transform-origin: 119.4px 76.835px;
        "
        id="elvv7hr0seogc"
        class="animable"
      ></path>
    </g>
    <g
      id="freepik--Earth--inject-248"
      class="animable"
      style="transform-origin: 249.992px 250.02px"
    >
      <path
        d="M403.22,250A152.47,152.47,0,0,1,374,340.07v0A153.24,153.24,0,1,1,250,96.78q6.3,0,12.49.5a152.23,152.23,0,0,1,67,21.73,153.84,153.84,0,0,1,40.93,36.28A152.69,152.69,0,0,1,403.22,250Z"
        style="
          fill: #0e6ba8;
          transform-origin: 249.995px 250.02px;
        "
        id="elg2nfyopn388"
        class="animable"
      ></path>
      <g id="ellmjj0w2i4j">
        <g
          style="
            opacity: 0.1;
            transform-origin: 263.082px 247.207px;
          "
          class="animable"
          id="elu1hrgn2npb"
        >
          <path
            d="M283.09,322.32c-1.93,5.15,1.28,5.36,1.5,7.51s0,6.22-6.22,12.45-16.53,4.93-18.67,7.51-5.8,13.52-10.95,17.16-6,1.51-13.3,3-12.88,10.94-15,15.45.43,12-4.72,12.23-7.51-10.94-12.23-16.95-6.22-11.37-7.72-18.46.85-21.89,0-27.68-16.31-16.09-21.89-23.18-13.31-21.24-12.88-26a19.18,19.18,0,0,1,6.44-11.8c2.57-1.94,1.5-3,1.93-4.73s2.58-2.14,3-4.29-1.28-8.58-3.43-9.65-3.65,2.57-4.93,1.93-5.15-5.15-6.66-5.58-1.07,2.79-3.22-1.29-3.21-14.38-4.93-16.09-3,3-7.08,0-5.8-8.8-7.51-9.66-4.08.21-5.85-3.22,1.55-9.66,0-9-4.88,5.58-5.74.85,4.29-20.6,3.43-29.18,2.15-17.6,8.16-24.89c0,0,.85-4.72,1.71-7.73s19.32-15,21.46-18.45c.9-1.44,1.2-3.69,1.52-6.11A152.51,152.51,0,0,1,250,96.78q6.3,0,12.49.5.21.3.42.57c1.86,2.36,3.87,3.86,9.31,5.87s6.72,4.57,5.57,6.72-3,2.57-5.15,2.72-4.15-1-6.43.43-4.58,9.15-7.59,9.58-8.29-6.86-9.44-9,2.58-6.72.82-8.87-4.82-1.72-9.69-2.15-16.16,1.44-15.74,3.3,16.6-.29,17,3.43-11.87,10-14,9.44-5-4.29-8.16-4.72-5.72,2.15-7.7,2.43-4.31-2.14-7.32-1.57-3.72,3.14-5.29,4.15-5.3,1-5.72,3.29,4.72,3.58,6,5-1.57,6.29-.28,7.29,9.3-6,11.3-7.72,3.72-9.16,8-9,5.73,7.44,7.15,8.16,4.58-1.72,9.31-.72,8,11.31,8.86,14.45,2.87,6.3,1.15,7.59-9.44-.86-10.44-2.87,5.15-5,4.72-5.72-4-1.72-5.87-.6-2.72,3.46-4.72,4-7.3-5.44-8.73-3.73,1.43,7.16,2.86,8.45,6.73,2,7.16,3.43-3.58,4.57-8.45,4.29-8.86-4-10.73-2.43-.85,5.72-2.14,7.15-8.3.43-11.73,4.15-5,9.3-8.44,12.45-5-.86-9.59,3.57-5.29,14.31-5.43,17.74,0,6.15-1.15,5.72-2.72-3.43-3.15-5.29,1-5,1-6.15-6.59-7-10.45-7.58-7.3,2.57-10.15,4.86-8,1.86-9.87,3.72-3.3,18.32-1.87,22.18,3.29,3.86,7.87,1.86,2-5.87,4.72-5a6.39,6.39,0,0,1,4.15,6c0,2.29-5.43,7.72-4.72,9.3s5.44-.29,7.73.43,3.43,2.14,2.72,8-.29,10.44,3.14,12.37,5.37-2.79,6.87-2.14,3.65,4.07,5.79,3.86,1.08-2.15,5.15-3.43,2.58-2.15,3.44-4.72,3.43-4.73,6.22-3.44.86,3.22,1.07,5.37,5.15,2.36,9,3.64,6,0,13.73,2.58,8.15,10.3,11.37,11.59,13.95-.86,21.68,4.72,5.58,15.88,9.44,18.88,18.24,7.09,23.82,8.16,6.44-2.79,10.94-1.72,7.09,2.36,8.59,8.59C301.79,305.69,285,317.17,283.09,322.32Z"
            id="el57g05k2mvf3"
            class="animable"
            style="transform-origin: 211.716px 247.207px"
          ></path>
          <path
            d="M167.78,212.59c.14,1.21,3.72,1.72,8,4.15s5.86,9.58,8.15,9.44,1.58-3.43,2.44-4.29,2.28-2.72,0-4.58-4.52-5.87-8.7-6.44-4.9-2.29-6.76-2.14A3.23,3.23,0,0,0,167.78,212.59Z"
            id="elmbqyhlv5d2"
            class="animable"
            style="transform-origin: 177.66px 217.451px"
          ></path>
          <path
            d="M191.38,224.61c-.63,1.75,0,3,4.58,4.15s8.87-1.15,7.44-2.08-3.58-.5-2.72-2.07.57-3.87-3.15-3.44S192,223,191.38,224.61Z"
            id="el8e6fsxp69h5"
            class="animable"
            style="transform-origin: 197.427px 225.096px"
          ></path>
          <path
            d="M207.41,225.09c-1.57.23-2.44,2.95-.86,4.67s1.57,1.43,3.43,0,4.72-2.15,4-3.58S209,224.87,207.41,225.09Z"
            id="elmjkhp4ey49"
            class="animable"
            style="transform-origin: 209.904px 227.95px"
          ></path>
          <path
            d="M219.85,230.94c.7-2.15,4.29,0,5.87,2.25s.86,5.58,0,8-1.43,5.29-3.44,4.15.15-4.58-.14-6.58S219.28,232.69,219.85,230.94Z"
            id="elk2xfqpt5jh"
            class="animable"
            style="transform-origin: 223.211px 237.825px"
          ></path>
          <path
            d="M281.51,111.59c-.75,1.79,2.72,2.43,4.72,3.57s3.58,1.86,4.72,0-.42-4-2-4.43S282.23,109.87,281.51,111.59Z"
            id="eln6sjjqxbez"
            class="animable"
            style="transform-origin: 286.373px 113.323px"
          ></path>
          <path
            d="M308.55,128.32c1.32,1.4,3.58,1.15,5.15,3.15s1,5.44,3,6.44,3.43,0,3.57-1.43-2.86-5-2.57-5.72,4.15,1,5,3.14-.86,5.15,1.14,5.73,1.57-2,2.43-2.58,2.72-.28,2.58-2-2.44-5.44-4.29-6.73-3.3-2.71-6.44-3.43-6.15-.14-7.73,1.15S307.74,127.47,308.55,128.32Z"
            id="eljvulwqhmfhg"
            class="animable"
            style="transform-origin: 318.565px 132.146px"
          ></path>
          <path
            d="M370.45,155.29a2.55,2.55,0,0,1-.81,1.5c-3,2.15-6.58-5.29-10.73-6.72s-6-6.72-6.87-5.58-.57,2.72-1.86,4.58-3.14,1.43-4,5,4,10.15,2.86,12.3-2.57,1.43-4.87,1.29-1.86,1.86-4.86,1-.43-4.58-5.15-9-6.3-5.3-5.29-7.3-.43-4.86,1.71-5.15,3.87,2.86,5.3,3.72,3.29-1.72,3.43-4-5-5.43-6.87-7.21-2-8.24-1.28-9.53,2.86-.86,3.43-4c.33-1.85-2.59-4.94-5.07-7.17A153.84,153.84,0,0,1,370.45,155.29Z"
            id="ela29073pof98"
            class="animable"
            style="transform-origin: 349.514px 143.948px"
          ></path>
          <path
            d="M391.81,283.55c.43-4.58-1.85-4.87.43-13.31s-2.43-17.45-4.14-19.31-5.44-1.29-8.45.57-.85,3.29-2.86,4-4-.43-5.86-.29-3.58,4.87-7.58,4.72-6.58-5.86-9.59-9.94-9.16-6.65-11.16-11.66,1.86-12.73,1-18.6-4.72-4.58-5.44-7.87.58-1.71,1.58-4.86-1.15-4.86.86-10.3,5.58-8.16,4.72-10.59-3.58-6.43-3.72-9.29,2.72-2.72,8.15-6.73,6.87-3.72,11-2.29a58.38,58.38,0,0,0,9.15,2.57c2.44.43,5.73,6.73,6.73,6.44s1.15-2.14,1.58-4.86a6,6,0,0,1,1.78-3.08A153.31,153.31,0,0,1,374,340.07C388.55,317.8,391.38,288.13,391.81,283.55Z"
            id="elfzm5qmz5lkq"
            class="animable"
            style="transform-origin: 370.591px 253.452px"
          ></path>
        </g>
      </g>
      <g id="el5jgikg9t1ug">
        <path
          d="M368.7,346.89A153.23,153.23,0,1,1,250,96.78q6.3,0,12.49.5c1.14.09,2.28.19,3.41.32A140.4,140.4,0,1,0,368.7,346.89Z"
          style="
            opacity: 0.1;
            transform-origin: 232.727px 250.01px;
          "
          class="animable"
          id="el3vap83yn8z6"
        ></path>
      </g>
      <g id="elahnlg9iqjz7">
        <path
          d="M403.22,250A152.47,152.47,0,0,1,374,340.07s0,0,0,0a154,154,0,0,1-55,46.78,154.81,154.81,0,0,0,48.33-43.29l0,0a154.18,154.18,0,0,0,6.08-172.18,151.44,151.44,0,0,0-9.62-13.68,154.88,154.88,0,0,0-41.15-36.49,153.2,153.2,0,0,0-67.44-21.85c-4.13-.34-8.33-.51-12.55-.51a154.1,154.1,0,0,0-37,4.48A153,153,0,0,1,250,96.78q6.3,0,12.49.5A153.17,153.17,0,0,1,403.22,250Z"
          style="
            fill: rgb(255, 255, 255);
            opacity: 0.3;
            transform-origin: 304.435px 241.815px;
          "
          class="animable"
          id="el1wfte4spmiw"
        ></path>
      </g>
      <g id="elc0wk16duhdn">
        <ellipse
          cx="164.94"
          cy="215.03"
          rx="9.76"
          ry="18.44"
          style="
            fill: rgb(255, 156, 189);
            transform-origin: 164.94px 215.03px;
            transform: rotate(-77.83deg);
          "
          class="animable"
          id="elgco7yfn7xc5"
        ></ellipse>
      </g>
      <g id="elplko0txpcbj">
        <ellipse
          cx="335.06"
          cy="215.03"
          rx="18.44"
          ry="9.76"
          style="
            fill: rgb(255, 156, 189);
            transform-origin: 335.06px 215.03px;
            transform: rotate(-12.17deg);
          "
          class="animable"
          id="el3mjdvxczqoj"
        ></ellipse>
      </g>
      <path
        d="M227.34,200.94c7,12.1,23,14.77,35.18,9.67a23.64,23.64,0,0,0,10.14-8.69c-1,4.71-4.42,8.81-8.66,11.47-12.52,7.59-33.39,3.26-36.66-12.45Z"
        style="
          fill: rgb(38, 50, 56);
          transform-origin: 250px 208.986px;
        "
        id="elxgj4ibeczz"
        class="animable"
      ></path>
      <path
        d="M209,162.92a38.22,38.22,0,0,0-27.72,6.67,41.94,41.94,0,0,0-7.43,6.7,16.57,16.57,0,0,1,2.08-4.86c6.45-10.7,22.35-15.69,33.07-8.51Z"
        style="
          fill: rgb(38, 50, 56);
          transform-origin: 191.425px 167.922px;
        "
        id="el66fh0p989rw"
        class="animable"
      ></path>
      <path
        d="M291,162.92c10.72-7.18,26.62-2.19,33.07,8.51a16.57,16.57,0,0,1,2.08,4.86,41.94,41.94,0,0,0-7.43-6.7A38.22,38.22,0,0,0,291,162.92Z"
        style="
          fill: rgb(38, 50, 56);
          transform-origin: 308.575px 167.922px;
        "
        id="elcz2ugocxzz5"
        class="animable"
      ></path>
      <path
        d="M284.65,199.21c7.75,4.51,17.89,5.71,25.63.82A27.59,27.59,0,0,0,318,192.4c3.23,4.28,9.09,5,14.11,4.27a14.58,14.58,0,0,1-13.22.71,9.87,9.87,0,0,1-1.89-1.15l2.54-.36a22.19,22.19,0,0,1-11.8,9.8c-8.05,2.6-17.73.16-23.08-6.46Z"
        style="
          fill: rgb(38, 50, 56);
          transform-origin: 308.38px 199.546px;
        "
        id="elr3700g43gkh"
        class="animable"
      ></path>
      <path
        d="M215.35,199.21c-5.35,6.62-15,9.06-23.08,6.46a22.23,22.23,0,0,1-11.8-9.8l2.54.36a9.87,9.87,0,0,1-1.89,1.15,14.58,14.58,0,0,1-13.22-.71c5,.71,10.88,0,14.11-4.27l1.3,1.74c7.69,10.42,21.26,11.4,32,5.07Z"
        style="
          fill: rgb(38, 50, 56);
          transform-origin: 191.625px 199.546px;
        "
        id="elmx1z1yqwau"
        class="animable"
      ></path>
    </g>
    <g
      id="freepik--Circle--inject-248"
      class="animable"
      style="transform-origin: 244.688px 245.615px"
    >
      <polygon
        points="357.51 141.01 360.44 140.37 360.44 140.39 357.51 141.01"
        style="
          fill: rgb(38, 50, 56);
          transform-origin: 358.975px 140.69px;
        "
        id="elm6hfytsohok"
        class="animable"
      ></polygon>
      <polygon
        points="366.3 139.17 372.19 138.06 372.2 138.15 366.31 139.22 366.3 139.17"
        style="
          fill: rgb(38, 50, 56);
          transform-origin: 369.25px 138.64px;
        "
        id="ellkulh1j6nsb"
        class="animable"
      ></polygon>
      <polygon
        points="378.09 137.07 384.01 136.21 384.03 136.36 378.11 137.19 378.09 137.07"
        style="
          fill: rgb(38, 50, 56);
          transform-origin: 381.06px 136.7px;
        "
        id="elj3n7uoy5gz9"
        class="animable"
      ></polygon>
      <polygon
        points="389.96 135.48 395.92 134.91 395.94 135.13 389.98 135.67 389.96 135.48"
        style="
          fill: rgb(38, 50, 56);
          transform-origin: 392.95px 135.29px;
        "
        id="elxinhzj0cj6j"
        class="animable"
      ></polygon>
      <polygon
        points="401.9 134.53 407.88 134.37 407.89 134.66 401.91 134.79 401.9 134.53"
        style="
          fill: rgb(38, 50, 56);
          transform-origin: 404.895px 134.58px;
        "
        id="elyo8ux5oaz2q"
        class="animable"
      ></polygon>
      <polygon
        points="413.88 134.46 419.86 134.88 419.82 135.24 413.86 134.78 413.88 134.46"
        style="
          fill: rgb(38, 50, 56);
          transform-origin: 416.86px 134.85px;
        "
        id="ell7y4e8cf9bc"
        class="animable"
      ></polygon>
      <path
        d="M425.8,135.71a55.83,55.83,0,0,1,5.85,1.38l-.12.4a56.92,56.92,0,0,0-5.8-1.39Z"
        style="
          fill: rgb(38, 50, 56);
          transform-origin: 428.69px 136.6px;
        "
        id="eletil29l0c5"
        class="animable"
      ></path>
      <path
        d="M437.28,139.2a26.9,26.9,0,0,1,5.16,3.13l-.31.39a26.36,26.36,0,0,0-5-3.1Z"
        style="
          fill: rgb(38, 50, 56);
          transform-origin: 439.785px 140.96px;
        "
        id="elbmly88vibyg"
        class="animable"
      ></path>
      <path
        d="M446.56,146.75l.75,1.32a10.1,10.1,0,0,1,.69,1.35,16.19,16.19,0,0,1,.95,2.88l-.5.12a17,17,0,0,0-.92-2.8,10.77,10.77,0,0,0-.67-1.31l-.73-1.28Z"
        style="
          fill: rgb(38, 50, 56);
          transform-origin: 447.54px 149.585px;
        "
        id="elgmh32gbz7hu"
        class="animable"
      ></path>
      <path
        d="M449.41,158.32a29.05,29.05,0,0,1-1.07,5.93l-.52-.15a28.11,28.11,0,0,0,1.05-5.82Z"
        style="
          fill: rgb(38, 50, 56);
          transform-origin: 448.615px 161.265px;
        "
        id="elfg66fg7fure"
        class="animable"
      ></path>
      <polygon
        points="446.28 169.9 443.57 175.26 443.07 174.98 445.77 169.68 446.28 169.9"
        style="
          fill: rgb(38, 50, 56);
          transform-origin: 444.675px 172.47px;
        "
        id="elfius6par1mo"
        class="animable"
      ></polygon>
      <polygon
        points="440.4 180.37 436.92 185.25 436.44 184.89 439.92 180.04 440.4 180.37"
        style="
          fill: rgb(38, 50, 56);
          transform-origin: 438.42px 182.645px;
        "
        id="elgj6mhxot9i"
        class="animable"
      ></polygon>
      <polygon
        points="433.19 189.94 429.26 194.47 428.81 194.06 432.72 189.55 433.19 189.94"
        style="
          fill: rgb(38, 50, 56);
          transform-origin: 431px 192.01px;
        "
        id="elde897ug4ksc"
        class="animable"
      ></polygon>
      <polygon
        points="425.19 198.86 420.98 203.12 420.53 202.67 424.74 198.42 425.19 198.86"
        style="
          fill: rgb(38, 50, 56);
          transform-origin: 422.86px 200.77px;
        "
        id="elg8b8diqmsk"
        class="animable"
      ></polygon>
      <polygon
        points="416.67 207.28 412.26 211.33 411.81 210.83 416.22 206.8 416.67 207.28"
        style="
          fill: rgb(38, 50, 56);
          transform-origin: 414.24px 209.065px;
        "
        id="el2ulct2i7wqd"
        class="animable"
      ></polygon>
      <polygon
        points="407.77 215.29 403.2 219.16 402.76 218.64 407.32 214.78 407.77 215.29"
        style="
          fill: rgb(38, 50, 56);
          transform-origin: 405.265px 216.97px;
        "
        id="elc6g14kbrl2j"
        class="animable"
      ></polygon>
      <polygon
        points="398.57 222.96 393.88 226.69 393.45 226.13 398.13 222.42 398.57 222.96"
        style="
          fill: rgb(38, 50, 56);
          transform-origin: 396.01px 224.555px;
        "
        id="elrhl9tbgms"
        class="animable"
      ></polygon>
      <polygon
        points="389.14 230.34 384.36 233.94 383.92 233.34 388.71 229.77 389.14 230.34"
        style="
          fill: rgb(38, 50, 56);
          transform-origin: 386.53px 231.855px;
        "
        id="elazsqbk1hoit"
        class="animable"
      ></polygon>
      <polygon
        points="379.52 237.47 374.65 240.94 374.21 240.32 379.09 236.86 379.52 237.47"
        style="
          fill: rgb(38, 50, 56);
          transform-origin: 376.865px 238.9px;
        "
        id="elyaj3navwhx"
        class="animable"
      ></polygon>
      <polygon
        points="369.73 244.36 364.78 247.72 364.34 247.07 369.3 243.72 369.73 244.36"
        style="
          fill: rgb(38, 50, 56);
          transform-origin: 367.035px 245.72px;
        "
        id="elhxyss2h5wq"
        class="animable"
      ></polygon>
      <polygon
        points="359.8 251.03 354.78 254.3 354.34 253.62 359.36 250.37 359.8 251.03"
        style="
          fill: rgb(38, 50, 56);
          transform-origin: 357.07px 252.335px;
        "
        id="eldmi4rncv8vm"
        class="animable"
      ></polygon>
      <polygon
        points="349.73 257.51 344.65 260.68 344.22 259.98 349.3 256.82 349.73 257.51"
        style="
          fill: rgb(38, 50, 56);
          transform-origin: 346.975px 258.75px;
        "
        id="eleno9lxq6eos"
        class="animable"
      ></polygon>
      <polygon
        points="339.55 263.8 334.41 266.88 333.98 266.15 339.11 263.09 339.55 263.8"
        style="
          fill: rgb(38, 50, 56);
          transform-origin: 336.765px 264.985px;
        "
        id="elpi3qke6et2l"
        class="animable"
      ></polygon>
      <polygon
        points="329.25 269.92 324.07 272.92 323.63 272.15 328.82 269.18 329.25 269.92"
        style="
          fill: rgb(38, 50, 56);
          transform-origin: 326.44px 271.05px;
        "
        id="ellhol62ud6ts"
        class="animable"
      ></polygon>
      <polygon
        points="318.86 275.87 313.63 278.78 313.2 277.99 318.43 275.1 318.86 275.87"
        style="
          fill: rgb(38, 50, 56);
          transform-origin: 316.03px 276.94px;
        "
        id="elagkpqcvl2w"
        class="animable"
      ></polygon>
      <polygon
        points="308.38 281.65 303.11 284.48 302.67 283.67 307.95 280.85 308.38 281.65"
        style="
          fill: rgb(38, 50, 56);
          transform-origin: 305.525px 282.665px;
        "
        id="elnl6dyhuilc"
        class="animable"
      ></polygon>
      <polygon
        points="297.81 287.27 292.5 290.02 292.06 289.18 297.38 286.44 297.81 287.27"
        style="
          fill: rgb(38, 50, 56);
          transform-origin: 294.935px 288.23px;
        "
        id="el37fqc0fqvie"
        class="animable"
      ></polygon>
      <polygon
        points="287.16 292.74 281.8 295.41 281.38 294.55 286.73 291.88 287.16 292.74"
        style="
          fill: rgb(38, 50, 56);
          transform-origin: 284.27px 293.645px;
        "
        id="elc1nth2pd9yj"
        class="animable"
      ></polygon>
      <polygon
        points="276.43 298.05 271.04 300.65 270.61 299.75 276 297.17 276.43 298.05"
        style="
          fill: rgb(38, 50, 56);
          transform-origin: 273.52px 298.91px;
        "
        id="elkob1c4l46kk"
        class="animable"
      ></polygon>
      <polygon
        points="265.62 303.21 260.19 305.72 259.78 304.83 265.2 302.31 265.62 303.21"
        style="
          fill: rgb(38, 50, 56);
          transform-origin: 262.7px 304.015px;
        "
        id="elhicicbktxpc"
        class="animable"
      ></polygon>
      <polygon
        points="254.73 308.19 249.26 310.63 248.88 309.75 254.34 307.31 254.73 308.19"
        style="
          fill: rgb(38, 50, 56);
          transform-origin: 251.805px 308.97px;
        "
        id="ely2fnqkky48l"
        class="animable"
      ></polygon>
      <polygon
        points="243.78 313.02 238.27 315.38 237.91 314.51 243.4 312.15 243.78 313.02"
        style="
          fill: rgb(38, 50, 56);
          transform-origin: 240.845px 313.765px;
        "
        id="elos1s6lk4y3g"
        class="animable"
      ></polygon>
      <polygon
        points="232.75 317.69 227.21 319.96 226.86 319.12 232.39 316.84 232.75 317.69"
        style="
          fill: rgb(38, 50, 56);
          transform-origin: 229.805px 318.4px;
        "
        id="eldb702ou9id"
        class="animable"
      ></polygon>
      <polygon
        points="221.65 322.19 216.07 324.37 215.75 323.54 221.32 321.35 221.65 322.19"
        style="
          fill: rgb(38, 50, 56);
          transform-origin: 218.7px 322.86px;
        "
        id="elgg5uau5f9wo"
        class="animable"
      ></polygon>
      <polygon
        points="210.48 326.51 204.87 328.61 204.57 327.8 210.17 325.69 210.48 326.51"
        style="
          fill: rgb(38, 50, 56);
          transform-origin: 207.525px 327.15px;
        "
        id="el35jq81i3e1f"
        class="animable"
      ></polygon>
      <polygon
        points="199.25 330.65 193.6 332.65 193.32 331.86 198.96 329.85 199.25 330.65"
        style="
          fill: rgb(38, 50, 56);
          transform-origin: 196.285px 331.25px;
        "
        id="el1zo1ue4nld1"
        class="animable"
      ></polygon>
      <polygon
        points="187.94 334.6 182.26 336.5 182 335.72 187.67 333.81 187.94 334.6"
        style="
          fill: rgb(38, 50, 56);
          transform-origin: 184.97px 335.155px;
        "
        id="elposgbudzaf"
        class="animable"
      ></polygon>
      <polygon
        points="176.56 338.34 170.85 340.12 170.61 339.36 176.32 337.57 176.56 338.34"
        style="
          fill: rgb(38, 50, 56);
          transform-origin: 173.585px 338.845px;
        "
        id="elybvk6by08ml"
        class="animable"
      ></polygon>
      <polygon
        points="165.11 341.85 159.36 343.51 159.15 342.77 164.89 341.1 165.11 341.85"
        style="
          fill: rgb(38, 50, 56);
          transform-origin: 162.13px 342.305px;
        "
        id="el9ee91jxfjqd"
        class="animable"
      ></polygon>
      <polygon
        points="153.59 345.11 147.8 346.64 147.61 345.92 153.39 344.38 153.59 345.11"
        style="
          fill: rgb(38, 50, 56);
          transform-origin: 150.6px 345.51px;
        "
        id="eli7gexwzgd1b"
        class="animable"
      ></polygon>
      <polygon
        points="141.99 348.1 136.16 349.48 136 348.77 141.81 347.38 141.99 348.1"
        style="
          fill: rgb(38, 50, 56);
          transform-origin: 138.995px 348.43px;
        "
        id="el28kqqn5ekiv"
        class="animable"
      ></polygon>
      <polygon
        points="130.31 350.77 124.44 351.98 124.31 351.29 130.16 350.08 130.31 350.77"
        style="
          fill: rgb(38, 50, 56);
          transform-origin: 127.31px 351.03px;
        "
        id="elpqwa46jb2f"
        class="animable"
      ></polygon>
      <polygon
        points="118.56 353.08 112.65 354.07 112.54 353.4 118.43 352.4 118.56 353.08"
        style="
          fill: rgb(38, 50, 56);
          transform-origin: 115.55px 353.235px;
        "
        id="elkozh783ppp"
        class="animable"
      ></polygon>
      <polygon
        points="106.72 354.94 100.77 355.68 100.7 355.03 106.63 354.29 106.72 354.94"
        style="
          fill: rgb(38, 50, 56);
          transform-origin: 103.71px 354.985px;
        "
        id="elw3rys5ozh7"
        class="animable"
      ></polygon>
      <polygon
        points="94.81 356.26 88.82 356.67 88.79 356.04 94.75 355.62 94.81 356.26"
        style="
          fill: rgb(38, 50, 56);
          transform-origin: 91.8px 356.145px;
        "
        id="elnlobk34wpc"
        class="animable"
      ></polygon>
      <polygon
        points="82.83 356.86 76.83 356.8 76.85 356.19 82.82 356.24 82.83 356.86"
        style="
          fill: rgb(38, 50, 56);
          transform-origin: 79.83px 356.525px;
        "
        id="eltg6y88y0go"
        class="animable"
      ></polygon>
      <polygon
        points="70.83 356.43 64.87 355.68 64.97 355.1 70.89 355.84 70.83 356.43"
        style="
          fill: rgb(38, 50, 56);
          transform-origin: 67.88px 355.765px;
        "
        id="el3o2ocauq3tw"
        class="animable"
      ></polygon>
      <path
        d="M59,354.41a44.07,44.07,0,0,1-5.7-2l.22-.51a44.3,44.3,0,0,0,5.62,1.92Z"
        style="
          fill: rgb(38, 50, 56);
          transform-origin: 56.22px 353.155px;
        "
        id="el4entopbkvaw"
        class="animable"
      ></path>
      <path
        d="M48,349.54a20.64,20.64,0,0,1-4.4-4.15l.42-.33a19.84,19.84,0,0,0,4.3,4Z"
        style="
          fill: rgb(38, 50, 56);
          transform-origin: 45.96px 347.3px;
        "
        id="elcujgzdj6id5"
        class="animable"
      ></path>
      <path
        d="M40.81,340a19.3,19.3,0,0,1-.84-6h.52a18.46,18.46,0,0,0,.82,5.82Z"
        style="
          fill: rgb(38, 50, 56);
          transform-origin: 40.6383px 337px;
        "
        id="ely3rczsmxlg"
        class="animable"
      ></path>
      <path
        d="M40.77,328.07a39.33,39.33,0,0,1,1.91-5.7l.43.17a38.86,38.86,0,0,0-1.85,5.65Z"
        style="
          fill: rgb(38, 50, 56);
          transform-origin: 41.94px 325.28px;
        "
        id="eldu37mowddoi"
        class="animable"
      ></path>
      <polygon
        points="45.29 316.96 48.39 311.83 48.72 312.04 45.67 317.17 45.29 316.96"
        style="
          fill: rgb(38, 50, 56);
          transform-origin: 47.005px 314.5px;
        "
        id="elmx8iwurhkta"
        class="animable"
      ></polygon>
      <polygon
        points="51.83 306.92 55.53 302.21 55.78 302.41 52.12 307.13 51.83 306.92"
        style="
          fill: rgb(38, 50, 56);
          transform-origin: 53.805px 304.67px;
        "
        id="elpw1l38ujpas"
        class="animable"
      ></polygon>
      <polygon
        points="59.42 297.66 63.49 293.26 63.67 293.44 59.64 297.86 59.42 297.66"
        style="
          fill: rgb(38, 50, 56);
          transform-origin: 61.545px 295.56px;
        "
        id="elvqtl39v25d8"
        class="animable"
      ></polygon>
      <polygon
        points="67.68 288.99 71.99 284.84 72.12 284.98 67.84 289.15 67.68 288.99"
        style="
          fill: rgb(38, 50, 56);
          transform-origin: 69.9px 286.995px;
        "
        id="el8pa2t3uixd7"
        class="animable"
      ></polygon>
      <polygon
        points="76.39 280.79 80.88 276.82 80.95 276.92 76.49 280.9 76.39 280.79"
        style="
          fill: rgb(38, 50, 56);
          transform-origin: 78.67px 278.86px;
        "
        id="elik42h2ya0b"
        class="animable"
      ></polygon>
      <polygon
        points="85.44 272.95 90.06 269.16 90.09 269.2 85.49 273.02 85.44 272.95"
        style="
          fill: rgb(38, 50, 56);
          transform-origin: 87.765px 271.09px;
        "
        id="el36shq4jni82"
        class="animable"
      ></polygon>
      <polygon
        points="94.82 265.39 97.19 263.55 94.83 265.4 94.82 265.39"
        style="
          fill: rgb(38, 50, 56);
          transform-origin: 96.005px 264.475px;
        "
        id="elziop6a0dzy"
        class="animable"
      ></polygon>
    </g>
    <g
      id="freepik--Moon--inject-248"
      class="animable"
      style="transform-origin: 423.11px 132.49px"
    >
      <path
        d="M383.64,130.08l1.27-7.1a3.73,3.73,0,0,0-3-4.33h0a3.73,3.73,0,0,0-4.33,3l-1.27,7.1a3.73,3.73,0,0,0,3,4.33h0A3.73,3.73,0,0,0,383.64,130.08Z"
        style="
          fill: rgb(219, 219, 219);
          transform-origin: 380.61px 125.865px;
        "
        id="elt1yuy7hwsz"
        class="animable"
      ></path>
      <path
        d="M469.64,131.72l-1-7.14a3.75,3.75,0,0,0-4.24-3.16h0a3.73,3.73,0,0,0-3.16,4.23l1,7.14a3.73,3.73,0,0,0,4.23,3.16h0A3.74,3.74,0,0,0,469.64,131.72Z"
        style="
          fill: rgb(219, 219, 219);
          transform-origin: 465.439px 128.686px;
        "
        id="el6slfc097gs6"
        class="animable"
      ></path>
      <path
        d="M395.92,104l2.83-2.64a3.73,3.73,0,0,0,.18-5.28h0a3.73,3.73,0,0,0-5.28-.18l-2.83,2.64a3.73,3.73,0,0,0-.18,5.28h0A3.73,3.73,0,0,0,395.92,104Z"
        style="
          fill: rgb(219, 219, 219);
          transform-origin: 394.785px 99.95px;
        "
        id="ellww4fb4y5fa"
        class="animable"
      ></path>
      <path
        d="M399.88,162.86,397.24,160a3.73,3.73,0,0,0-5.28-.18h0a3.73,3.73,0,0,0-.18,5.28l2.64,2.83a3.73,3.73,0,0,0,5.28.18h0A3.73,3.73,0,0,0,399.88,162.86Z"
        style="
          fill: rgb(219, 219, 219);
          transform-origin: 395.823px 163.965px;
        "
        id="elcul3d2ng4o"
        class="animable"
      ></path>
      <path
        d="M437.71,176.08l3.65-1.31A3.74,3.74,0,0,0,443.6,170h0a3.74,3.74,0,0,0-4.79-2.24l-3.64,1.32a3.73,3.73,0,0,0-2.24,4.78h0A3.72,3.72,0,0,0,437.71,176.08Z"
        style="
          fill: rgb(219, 219, 219);
          transform-origin: 438.262px 171.922px;
        "
        id="el15aepkiapkri"
        class="animable"
      ></path>
      <g id="el0jcmjqwgllyj">
        <circle
          cx="423.11"
          cy="132.49"
          r="43.11"
          style="
            fill: rgb(219, 219, 219);
            transform-origin: 423.11px 132.49px;
            transform: rotate(-21.7deg);
          "
          class="animable"
          id="elr1qq2z45vyo"
        ></circle>
      </g>
      <g id="elk1w03yd5oo">
        <path
          d="M456.38,136.13a9.61,9.61,0,0,1,2,5.71,11.69,11.69,0,0,1-1.48,6.08,8.56,8.56,0,0,1-4.88,4.06,8.91,8.91,0,0,1-6.08-.28,12.89,12.89,0,0,0,5.55-1.09,7.54,7.54,0,0,0,2.17-1.51,8.47,8.47,0,0,0,1.6-2.1c.22-.4.43-.81.62-1.22s.35-.85.47-1.29a12.79,12.79,0,0,0,.57-2.68A14.62,14.62,0,0,0,456.38,136.13Z"
          style="
            opacity: 0.2;
            transform-origin: 452.163px 144.257px;
          "
          class="animable"
          id="elt66avzm10ye"
        ></path>
      </g>
      <g id="elg8mqdct0dza">
        <path
          d="M445.09,147a6.19,6.19,0,0,1-1.62-3.89,7.72,7.72,0,0,1,1-4.28A5.86,5.86,0,0,1,448,136a5.67,5.67,0,0,1,4.22.41,9.55,9.55,0,0,0-3.69,1,5.77,5.77,0,0,0-2.39,2.38A10.15,10.15,0,0,0,445.09,147Z"
          style="
            opacity: 0.2;
            transform-origin: 447.838px 141.385px;
          "
          class="animable"
          id="ela7k9qegyap"
        ></path>
      </g>
      <g id="elbrzzpiadvl">
        <path
          d="M437.12,157.06a4.28,4.28,0,0,1,.56,2.95,5.27,5.27,0,0,1-1.39,2.82,4.12,4.12,0,0,1-2.93,1.32,4.21,4.21,0,0,1-2.85-1,7.73,7.73,0,0,0,2.73-.06,4.11,4.11,0,0,0,2.05-1.2,6.49,6.49,0,0,0,1.35-2.13A7.94,7.94,0,0,0,437.12,157.06Z"
          style="
            opacity: 0.2;
            transform-origin: 434.126px 160.606px;
          "
          class="animable"
          id="elaxyyu4txlkt"
        ></path>
      </g>
      <g id="elrkhsja9hdvs">
        <path
          d="M431.25,161.64a2.74,2.74,0,0,1-.56-2,3.57,3.57,0,0,1,1-2,2.85,2.85,0,0,1,2.13-.92,2.71,2.71,0,0,1,2,.86,6.27,6.27,0,0,0-1.83.21,2.82,2.82,0,0,0-1.26.8A5.3,5.3,0,0,0,431.25,161.64Z"
          style="
            opacity: 0.2;
            transform-origin: 433.246px 159.18px;
          "
          class="animable"
          id="elsjsqq1d4mf"
        ></path>
      </g>
      <g id="elthctvb81mhd">
        <path
          d="M397,110.28a3.05,3.05,0,0,1,.4,2.1,3.72,3.72,0,0,1-1,2,2.91,2.91,0,0,1-2.08.94,3,3,0,0,1-2-.71,5.37,5.37,0,0,0,1.93,0,2.88,2.88,0,0,0,1.46-.85,4.42,4.42,0,0,0,1-1.51A5.56,5.56,0,0,0,397,110.28Z"
          style="
            opacity: 0.2;
            transform-origin: 394.882px 112.8px;
          "
          class="animable"
          id="eluuq492ur8c"
        ></path>
      </g>
      <g id="el6hiqsg8tkbh">
        <path
          d="M392.85,113.54a1.92,1.92,0,0,1-.39-1.46,2.49,2.49,0,0,1,.68-1.44,2,2,0,0,1,1.51-.65,1.89,1.89,0,0,1,1.39.61,4.26,4.26,0,0,0-1.3.15,2,2,0,0,0-.89.57A3.74,3.74,0,0,0,392.85,113.54Z"
          style="
            opacity: 0.2;
            transform-origin: 394.24px 111.765px;
          "
          class="animable"
          id="eljlzf2suds"
        ></path>
      </g>
      <g id="eldtitrlmwxy">
        <path
          d="M398.62,148.37a3.87,3.87,0,0,1,2.59,1.57,4.24,4.24,0,0,1,.74,3.2,3.78,3.78,0,0,1-2,2.69,4.58,4.58,0,0,1-3,.49,14.71,14.71,0,0,0,2.1-1.69,3.3,3.3,0,0,0,1-1.81,4.34,4.34,0,0,0-.17-2.16A7.91,7.91,0,0,0,398.62,148.37Z"
          style="
            opacity: 0.2;
            transform-origin: 399.481px 152.381px;
          "
          class="animable"
          id="elb7bc5tjln6r"
        ></path>
      </g>
      <g id="elvud1ltwimv">
        <path
          d="M396.63,154.86a2.47,2.47,0,0,1-2-1,2.94,2.94,0,0,1-.59-2.34,2.66,2.66,0,0,1,1.49-2,2.81,2.81,0,0,1,2.16-.14,13.76,13.76,0,0,0-1.28,1.33,2.33,2.33,0,0,0-.52,1.1,3.37,3.37,0,0,0,0,1.3A6.17,6.17,0,0,0,396.63,154.86Z"
          style="
            opacity: 0.2;
            transform-origin: 395.842px 152.044px;
          "
          class="animable"
          id="elnl5ybrihgoh"
        ></path>
      </g>
      <g id="el2yy2fy304br">
        <path
          d="M443.48,98.3a3.85,3.85,0,0,1,.89,2.89,4.2,4.2,0,0,1-1.57,2.88,3.77,3.77,0,0,1-3.26.71,4.5,4.5,0,0,1-2.54-1.61,13.28,13.28,0,0,0,2.68.13,3.32,3.32,0,0,0,1.95-.7,4.31,4.31,0,0,0,1.3-1.73A7.93,7.93,0,0,0,443.48,98.3Z"
          style="
            opacity: 0.2;
            transform-origin: 440.696px 101.596px;
          "
          class="animable"
          id="eltu4844y1ad9"
        ></path>
      </g>
      <g id="el4apfpzbu5vy">
        <path
          d="M437.68,101.83a2.45,2.45,0,0,1-.84-2A3,3,0,0,1,438,97.66a2.7,2.7,0,0,1,2.43-.48,2.85,2.85,0,0,1,1.71,1.33,14.7,14.7,0,0,0-1.85.15,2.2,2.2,0,0,0-1.11.48,3.34,3.34,0,0,0-.85,1A6.39,6.39,0,0,0,437.68,101.83Z"
          style="
            opacity: 0.2;
            transform-origin: 439.488px 99.4519px;
          "
          class="animable"
          id="elm1ox5doz1kb"
        ></path>
      </g>
      <path
        d="M396,142.91c.11,1.77-2.53,3.38-5.89,3.58s-6.17-1.07-6.28-2.85,2.53-3.38,5.89-3.59S395.85,141.13,396,142.91Z"
        style="
          fill: rgb(255, 156, 189);
          transform-origin: 389.915px 143.269px;
        "
        id="elw9kw3nmars"
        class="animable"
      ></path>
      <path
        d="M438.63,131c.83,1.58,3.91,1.58,6.89,0s4.72-4.12,3.89-5.69-3.92-1.58-6.9,0S437.8,129.39,438.63,131Z"
        style="
          fill: rgb(255, 156, 189);
          transform-origin: 444.02px 128.157px;
        "
        id="elxo63eo8m5u"
        class="animable"
      ></path>
      <path
        d="M408.48,133.23c3.29,3.26,8.65,2.68,12.07,0a7.77,7.77,0,0,0,2.44-3.68,6.2,6.2,0,0,1-1.75,4.4c-3.31,3.51-10.28,4-12.76-.68Z"
        style="
          fill: rgb(38, 50, 56);
          transform-origin: 415.735px 133.116px;
        "
        id="elqnuss4ttsvi"
        class="animable"
      ></path>
      <path
        d="M399.25,122.77a12.47,12.47,0,0,0-8.24,4.58,14.13,14.13,0,0,0-1.76,2.8,6,6,0,0,1,.24-1.73c1.12-4,5.71-6.95,9.76-5.65Z"
        style="
          fill: rgb(38, 50, 56);
          transform-origin: 394.25px 126.305px;
        "
        id="elrzmcs9q6i5"
        class="animable"
      ></path>
      <path
        d="M425.36,115.46c2.78-3.21,8.26-3,11.27-.23a5.52,5.52,0,0,1,1.11,1.35,13.93,13.93,0,0,0-3-1.49,12.54,12.54,0,0,0-9.42.37Z"
        style="
          fill: rgb(38, 50, 56);
          transform-origin: 431.53px 114.841px;
        "
        id="elc2j403xqi7"
        class="animable"
      ></path>
      <path
        d="M426.57,127.58a8.5,8.5,0,0,0,8.28-2,17.32,17.32,0,0,0,2-2.34c-.12,5-6.58,7-10.27,4.32Z"
        style="
          fill: rgb(38, 50, 56);
          transform-origin: 431.71px 125.997px;
        "
        id="elu5csy5rf3dr"
        class="animable"
      ></path>
      <path
        d="M404.51,133.75c-1.79,4.18-8.34,5.83-11,1.64a18.46,18.46,0,0,0,2.91,1,8.55,8.55,0,0,0,8.11-2.62Z"
        style="
          fill: rgb(38, 50, 56);
          transform-origin: 399.02px 135.789px;
        "
        id="el5fdkptl6px"
        class="animable"
      ></path>
      <g id="elstif7glbaxb">
        <path
          d="M453.84,162.74a43.4,43.4,0,0,1-10.13,7.63,3.47,3.47,0,0,1,.06,1.43,3.72,3.72,0,0,1-2.42,3l-3.64,1.32a3.77,3.77,0,0,1-1.27.22,3.64,3.64,0,0,1-1.08-.17,3.68,3.68,0,0,1-2.16-1.72,43.26,43.26,0,0,1-33.88-6,3.74,3.74,0,0,1-4.9-.49l-2.65-2.83a3.73,3.73,0,0,1-.76-3.86,43,43,0,0,1-11-28.11H380a3.49,3.49,0,0,1-.65-.06,3.75,3.75,0,0,1-3-4.33l1.28-7.1a3.74,3.74,0,0,1,3.68-3.09,4.76,4.76,0,0,1,.65.06l.37.09A43,43,0,0,1,390.79,104a1.06,1.06,0,0,1-.15-.15,3.73,3.73,0,0,1,.18-5.28l2.83-2.64a3.72,3.72,0,0,1,2.55-1l.44,0a3.75,3.75,0,0,1,2.29,1.16,3.49,3.49,0,0,1,.39.49,42.94,42.94,0,0,1,23.14-7.17c-26.64,8.3-37.27,31-30,54.88,5.06,16.67,24.1,26.83,42.23,25a40.36,40.36,0,0,0,7.11-1.36,37,37,0,0,0,14.69-8.14A38.73,38.73,0,0,1,453.84,162.74Z"
          style="
            opacity: 0.1;
            transform-origin: 416.392px 132.875px;
          "
          class="animable"
          id="els0s9vrpzhe"
        ></path>
      </g>
      <g id="eltc395vs2f6g">
        <path
          d="M469.67,132.26a3.72,3.72,0,0,1-3.2,3.69,2.56,2.56,0,0,1-.39,0c-.11,1.36-.29,2.72-.53,4.09a43,43,0,0,1-9.09,19.76s0,0,0,0c19.86-39.4-10.57-65.41-30.81-70.34a49,49,0,0,1,5,.6,43.09,43.09,0,0,1,34.07,31.34,3.73,3.73,0,0,1,3.84,3.19l1,7.14A4.89,4.89,0,0,1,469.67,132.26Z"
          style="
            fill: rgb(255, 255, 255);
            opacity: 0.3;
            transform-origin: 447.66px 124.63px;
          "
          class="animable"
          id="elcexj3fhiwi8"
        ></path>
      </g>
    </g>
    <defs>
      <filter
        id="active"
        height="200%"
      >
        <feMorphology
          in="SourceAlpha"
          result="DILATED"
          operator="dilate"
          radius="2"
        ></feMorphology>
        <feFlood
          flood-color="#32DFEC"
          flood-opacity="1"
          result="PINK"
        ></feFlood>
        <feComposite
          in="PINK"
          in2="DILATED"
          operator="in"
          result="OUTLINE"
        ></feComposite>
        <feMerge>
          <feMergeNode in="OUTLINE"></feMergeNode>
          <feMergeNode in="SourceGraphic"></feMergeNode>
        </feMerge>
      </filter>
      <filter
        id="hover"
        height="200%"
      >
        <feMorphology
          in="SourceAlpha"
          result="DILATED"
          operator="dilate"
          radius="2"
        ></feMorphology>
        <feFlood
          flood-color="#ff0000"
          flood-opacity="0.5"
          result="PINK"
        ></feFlood>
        <feComposite
          in="PINK"
          in2="DILATED"
          operator="in"
          result="OUTLINE"
        ></feComposite>
        <feMerge>
          <feMergeNode in="OUTLINE"></feMergeNode>
          <feMergeNode in="SourceGraphic"></feMergeNode>
        </feMerge>
        <feColorMatrix
          type="matrix"
          values="0   0   0   0   0                0   1   0   0   0                0   0   0   0   0                0   0   0   1   0 "
        ></feColorMatrix>
      </filter>
    </defs>
  </svg>

